<svg width="101" height="24" viewBox="0 0 101 24" fill="none" xmlns="http://www.w3.org/2000/svg">
<g clip-path="url(#clip0_24542_16181)">
<path fill-rule="evenodd" clip-rule="evenodd" d="M8.89773 16.5448C8.14427 16.5448 7.42167 16.2455 6.8889 15.7127C6.35613 15.18 6.05682 14.4574 6.05682 13.7039V0.635742H0.375V13.7039C0.375 18.4107 4.19091 22.2267 8.89773 22.2267H15.1477V16.5448H8.89773ZM25.9432 6.31756C25.2716 6.31756 24.6067 6.44983 23.9863 6.70681C23.3659 6.9638 22.8021 7.34046 22.3273 7.81531C21.8524 8.29015 21.4758 8.85388 21.2188 9.47429C20.9618 10.0947 20.8295 10.7597 20.8295 11.4312C20.8295 12.1027 20.9618 12.7677 21.2188 13.3881C21.4758 14.0085 21.8524 14.5722 22.3273 15.0471C22.8021 15.5219 23.3659 15.8986 23.9863 16.1556C24.6067 16.4126 25.2716 16.5448 25.9432 16.5448C27.2994 16.5448 28.6001 16.0061 29.5591 15.0471C30.5181 14.0881 31.0568 12.7874 31.0568 11.4312C31.0568 10.075 30.5181 8.7743 29.5591 7.81531C28.6001 6.85632 27.2994 6.31756 25.9432 6.31756ZM15.1477 11.4312C15.1477 5.46926 19.9812 0.635742 25.9432 0.635742C31.9051 0.635742 36.7386 5.46926 36.7386 11.4312C36.7386 17.3931 31.9051 22.2267 25.9432 22.2267C19.9812 22.2267 15.1477 17.3931 15.1477 11.4312ZM87.3068 6.31756C85.9506 6.31756 84.6499 6.85632 83.6909 7.81531C82.7319 8.7743 82.1932 10.075 82.1932 11.4312C82.1932 12.7874 82.7319 14.0881 83.6909 15.0471C84.6499 16.0061 85.9506 16.5448 87.3068 16.5448C88.663 16.5448 89.9637 16.0061 90.9227 15.0471C91.8817 14.0881 92.4205 12.7874 92.4205 11.4312C92.4205 10.075 91.8817 8.7743 90.9227 7.81531C89.9637 6.85632 88.663 6.31756 87.3068 6.31756ZM76.5114 11.4312C76.5114 5.46926 81.3449 0.635742 87.3068 0.635742C93.2687 0.635742 98.1023 5.46926 98.1023 11.4312C98.1023 17.3931 93.2687 22.2267 87.3068 22.2267C81.3449 22.2267 76.5114 17.3931 76.5114 11.4312ZM48.6705 0.635742C42.7085 0.635742 37.875 5.46926 37.875 11.4312C37.875 17.3931 42.7085 22.2267 48.6705 22.2267H64.5795C65.6983 22.2267 66.7773 22.0562 67.792 21.7403L70.8295 23.363L74.1068 17.2244C74.9393 15.6617 75.3748 13.9183 75.375 12.1477V11.4312C75.375 5.46926 70.5415 0.635742 64.5795 0.635742H48.6705ZM69.6932 11.4312C69.6932 10.075 69.1544 8.7743 68.1954 7.81531C67.2364 6.85632 65.9358 6.31756 64.5795 6.31756H48.6705C47.9989 6.31756 47.334 6.44983 46.7136 6.70681C46.0931 6.9638 45.5294 7.34046 45.0546 7.81531C44.5797 8.29015 44.2031 8.85388 43.9461 9.47429C43.6891 10.0947 43.5568 10.7597 43.5568 11.4312C43.5568 12.1027 43.6891 12.7677 43.9461 13.3881C44.2031 14.0085 44.5797 14.5722 45.0546 15.0471C45.5294 15.5219 46.0931 15.8986 46.7136 16.1556C47.334 16.4126 47.9989 16.5448 48.6705 16.5448H64.5795C65.9289 16.5449 67.2236 16.0116 68.1814 15.0612C69.1393 14.1108 69.6827 12.8203 69.6932 11.471V11.4312Z" fill="#172423"/>
<path d="M100.375 2.05611C100.375 2.43283 100.226 2.79413 99.9592 3.06052C99.6928 3.32691 99.3315 3.47656 98.9548 3.47656C98.578 3.47656 98.2167 3.32691 97.9503 3.06052C97.684 2.79413 97.5343 2.43283 97.5343 2.05611C97.5343 1.67938 97.684 1.31808 97.9503 1.05169C98.2167 0.785305 98.578 0.635651 98.9548 0.635651C99.3315 0.635651 99.6928 0.785305 99.9592 1.05169C100.226 1.31808 100.375 1.67938 100.375 2.05611Z" fill="#172423"/>
</g>
<defs>
<clipPath id="clip0_24542_16181">
<rect width="100" height="22.7273" fill="white" transform="translate(0.375 0.636353)"/>
</clipPath>
</defs>
</svg>
