<svg width="131" height="32" viewBox="0 0 131 32" fill="none" xmlns="http://www.w3.org/2000/svg">
<g clip-path="url(#clip0_24542_16201)">
<path fill-rule="evenodd" clip-rule="evenodd" d="M0.625 16C10.6916 16 16.4626 10.2291 16.4626 0.162445C16.4626 10.2291 22.2335 16 32.3001 16C22.2335 16 16.4626 21.771 16.4626 31.8376C16.4626 21.771 10.6916 16 0.625 16Z" fill="#172423"/>
<path d="M36.2595 21.9392L40.5891 8.95038H44.5089L48.8385 21.9392H45.9521L45.079 19.2666H40.0189L39.1459 21.9392H36.2595ZM40.6604 17.1463H44.4376L43.3329 13.8323L42.6024 11.4626H42.4955L41.765 13.8323L40.6604 17.1463Z" fill="#172423"/>
<path d="M53.67 22.0995C52.7198 22.0995 51.8883 21.8975 51.1756 21.4937C50.4629 21.0779 49.9106 20.5018 49.5186 19.7654C49.1266 19.0171 48.9306 18.15 48.9306 17.1641C48.9306 16.1663 49.1266 15.2992 49.5186 14.5628C49.9225 13.8144 50.4867 13.2383 51.2112 12.8345C51.9358 12.4187 52.7851 12.2109 53.7591 12.2109C54.5787 12.2109 55.3092 12.3653 55.9506 12.6741C56.5921 12.983 57.0969 13.4106 57.4651 13.957C57.8452 14.5034 58.0531 15.1388 58.0887 15.8634H55.523C55.4399 15.3645 55.232 14.9904 54.8994 14.7409C54.5668 14.4796 54.163 14.3489 53.6878 14.3489C52.9989 14.3489 52.4763 14.6043 52.1199 15.1151C51.7636 15.6259 51.5854 16.3088 51.5854 17.1641C51.5854 18.1025 51.7755 18.8033 52.1556 19.2665C52.5475 19.7298 53.0524 19.9614 53.67 19.9614C54.2283 19.9614 54.6678 19.8188 54.9885 19.5338C55.3211 19.2487 55.5111 18.8745 55.5587 18.4113H58.1065C58.0709 19.1596 57.8571 19.8129 57.4651 20.3712C57.085 20.9176 56.5683 21.3452 55.915 21.654C55.2617 21.951 54.5134 22.0995 53.67 22.0995Z" fill="#172423"/>
<path d="M59.358 21.9391V12.389H61.8881L61.9772 14.1173H62.0841C62.3216 13.4878 62.7077 13.0127 63.2422 12.6919C63.7767 12.3712 64.3647 12.2109 65.0061 12.2109C65.6713 12.2109 66.2771 12.3712 66.8233 12.6919C67.3697 13.0127 67.7736 13.565 68.0349 14.3489H68.1774C68.4031 13.6363 68.8011 13.1017 69.3712 12.7454C69.9532 12.389 70.6065 12.2109 71.3311 12.2109C71.9488 12.2109 72.5011 12.3415 72.9881 12.6029C73.4751 12.8642 73.8612 13.2859 74.1462 13.8679C74.4432 14.438 74.5917 15.2042 74.5917 16.1663V21.9391H71.9725V16.7365C71.9725 15.9287 71.8359 15.3289 71.5627 14.9369C71.3014 14.5449 70.8738 14.3489 70.2799 14.3489C69.6503 14.3489 69.1574 14.5806 68.8011 15.0438C68.4566 15.4952 68.2843 16.0238 68.2843 16.6296V21.9391H65.6653V16.7365C65.6653 15.9287 65.5287 15.3289 65.2555 14.9369C64.9942 14.5449 64.5666 14.3489 63.9727 14.3489C63.3313 14.3489 62.8383 14.5806 62.4939 15.0438C62.1494 15.4952 61.9772 16.0238 61.9772 16.6296V21.9391H59.358Z" fill="#172423"/>
<path d="M80.571 22.0995C79.5732 22.0995 78.718 21.8975 78.0053 21.4937C77.3045 21.0898 76.764 20.5256 76.3839 19.801C76.0038 19.0646 75.8138 18.2094 75.8138 17.2353C75.8138 16.2019 76.0038 15.3111 76.3839 14.5628C76.7759 13.8144 77.3223 13.2383 78.0231 12.8345C78.7239 12.4187 79.5435 12.2109 80.4819 12.2109C81.5866 12.2109 82.4953 12.4544 83.2079 12.9414C83.9206 13.4165 84.4314 14.0757 84.7402 14.9191C85.0491 15.7506 85.15 16.6949 85.0431 17.752H78.3973C78.3854 18.5122 78.5814 19.1002 78.9853 19.516C79.3891 19.9198 79.9177 20.1217 80.571 20.1217C81.0699 20.1217 81.4915 20.0148 81.836 19.801C82.1924 19.5753 82.418 19.2784 82.5131 18.9102H84.9897C84.9065 19.5516 84.663 20.1099 84.2592 20.585C83.8672 21.0601 83.3564 21.4343 82.7269 21.7075C82.0973 21.9688 81.3787 22.0995 80.571 22.0995ZM80.4819 14.1886C79.888 14.1886 79.4069 14.3608 79.0387 14.7053C78.6705 15.0379 78.4626 15.4952 78.4151 16.0772H82.4774C82.4418 15.4358 82.2339 14.9607 81.8538 14.6518C81.4856 14.343 81.0283 14.1886 80.4819 14.1886Z" fill="#172423"/>
<path d="M95.8568 22.0997C94.5621 22.0997 93.4218 21.8384 92.4359 21.3158C91.4619 20.7931 90.7017 20.0329 90.1553 19.0351C89.6089 18.0374 89.3357 16.8377 89.3357 15.4361C89.3357 14.0344 89.6089 12.8407 90.1553 11.8548C90.7017 10.857 91.4619 10.0968 92.4359 9.57418C93.4218 9.05154 94.5621 8.79022 95.8568 8.79022C96.9734 8.79022 97.9652 8.98621 98.8323 9.37819C99.6994 9.75829 100.4 10.2988 100.935 10.9996C101.469 11.6885 101.796 12.4962 101.915 13.4227H99.0996C98.9452 12.7575 98.5769 12.2171 97.9949 11.8013C97.4248 11.3737 96.7121 11.1599 95.8568 11.1599C94.7403 11.1599 93.8494 11.5163 93.1843 12.229C92.531 12.9416 92.2043 14.0107 92.2043 15.4361C92.2043 16.8733 92.531 17.9483 93.1843 18.661C93.8494 19.3737 94.7403 19.73 95.8568 19.73C96.6883 19.73 97.401 19.5222 97.9949 19.1064C98.5888 18.6907 98.957 18.1383 99.0996 17.4494H101.915C101.808 18.3759 101.481 19.1896 100.935 19.8904C100.388 20.5912 99.6757 21.1376 98.7967 21.5296C97.9296 21.9097 96.9496 22.0997 95.8568 22.0997Z" fill="#172423"/>
<path d="M107.603 22.0995C106.653 22.0995 105.815 21.9035 105.091 21.5115C104.366 21.1195 103.802 20.5553 103.398 19.8188C103.006 19.0824 102.81 18.1975 102.81 17.1641C102.81 16.1782 103 15.317 103.38 14.5806C103.761 13.8322 104.307 13.2502 105.02 12.8345C105.732 12.4187 106.594 12.2109 107.603 12.2109C108.553 12.2109 109.385 12.4069 110.098 12.7988C110.822 13.1908 111.38 13.761 111.772 14.5093C112.176 15.2457 112.378 16.1307 112.378 17.1641C112.378 18.15 112.188 19.0171 111.808 19.7654C111.428 20.5018 110.882 21.0779 110.169 21.4937C109.468 21.8975 108.613 22.0995 107.603 22.0995ZM107.585 19.9792C108.227 19.9792 108.743 19.7476 109.135 19.2843C109.527 18.8211 109.723 18.1143 109.723 17.1641C109.723 16.2138 109.533 15.5071 109.153 15.0438C108.773 14.5806 108.256 14.3489 107.603 14.3489C106.95 14.3489 106.427 14.5806 106.035 15.0438C105.643 15.5071 105.447 16.2138 105.447 17.1641C105.447 18.1025 105.637 18.8092 106.017 19.2843C106.409 19.7476 106.932 19.9792 107.585 19.9792Z" fill="#172423"/>
<path d="M113.69 21.9391V12.3891H116.06L116.167 13.9213H116.256C116.469 13.3037 116.808 12.8761 117.271 12.6385C117.746 12.3891 118.287 12.2643 118.893 12.2643H119.427V14.7231H118.839C117.96 14.7231 117.325 14.9191 116.933 15.3111C116.541 15.6912 116.333 16.2376 116.309 16.9503V21.9391H113.69Z" fill="#172423"/>
<path d="M120.451 24.9146V12.389H122.981L123.07 14.0461H123.212C123.438 13.4878 123.812 13.0423 124.335 12.7098C124.869 12.3772 125.505 12.2109 126.241 12.2109C127.382 12.2109 128.302 12.6266 129.003 13.4581C129.716 14.2777 130.072 15.513 130.072 17.1641C130.072 18.8033 129.716 20.0386 129.003 20.8701C128.302 21.7015 127.382 22.1173 126.241 22.1173C125.505 22.1173 124.869 21.951 124.335 21.6184C123.812 21.2739 123.438 20.8285 123.212 20.2821H123.07V24.9146H120.451ZM125.261 19.997C125.903 19.997 126.414 19.7713 126.794 19.32C127.186 18.8567 127.382 18.1381 127.382 17.1641C127.382 16.1901 127.186 15.4774 126.794 15.026C126.414 14.5628 125.903 14.3311 125.261 14.3311C124.774 14.3311 124.37 14.444 124.05 14.6697C123.729 14.8953 123.491 15.1923 123.337 15.5605C123.183 15.9169 123.105 16.297 123.105 16.7008V17.6273C123.105 18.0312 123.183 18.4172 123.337 18.7854C123.491 19.1418 123.729 19.4328 124.05 19.6585C124.37 19.8842 124.774 19.997 125.261 19.997Z" fill="#172423"/>
</g>
<defs>
<clipPath id="clip0_24542_16201">
<rect width="130" height="31.6751" fill="white" transform="translate(0.625 0.162445)"/>
</clipPath>
</defs>
</svg>
