<svg width="71" height="44" viewBox="0 0 71 44" fill="none" xmlns="http://www.w3.org/2000/svg">
<g clip-path="url(#clip0_24542_16185)">
<path d="M66.4018 5.40853C66.4018 5.45983 66.4018 5.52396 66.3887 5.56244C66.3231 6.06265 66.3231 6.56286 66.3624 7.0759C66.3887 7.20416 66.4149 7.33242 66.5199 7.43503C66.6904 7.62741 66.9527 7.58894 67.0577 7.35807C67.1102 7.24264 67.1102 7.1272 67.0839 7.01177C66.9527 6.52438 66.9265 6.01135 66.9134 5.51113C66.9134 5.48548 66.9134 5.447 66.9134 5.40853C67.0577 5.3957 67.1889 5.38287 67.3069 5.38287C67.3988 5.37005 67.4775 5.35722 67.5431 5.31874C67.7398 5.21614 67.7398 4.9981 67.5299 4.89549C67.4512 4.85701 67.3463 4.84418 67.2545 4.84418C66.9265 4.85701 66.5986 4.85701 66.2706 4.85701C66.1526 4.85701 66.0345 4.86984 65.9164 4.88266C65.8508 4.89549 65.7721 4.89549 65.7197 4.93397C65.6278 4.97244 65.5754 5.03657 65.5754 5.12635C65.5885 5.21614 65.6278 5.26744 65.7197 5.30592C65.7721 5.3444 65.8377 5.35722 65.9033 5.35722C66.0607 5.37005 66.2313 5.3957 66.4018 5.40853ZM70.0092 5.99852C70.0092 6.01135 70.0223 6.02417 70.0223 6.02417C70.0748 6.37047 70.1273 6.70395 70.1666 7.03742C70.1798 7.15285 70.1929 7.25546 70.2716 7.34524C70.4421 7.56328 70.7045 7.53763 70.8225 7.30677C70.875 7.19133 70.8881 7.0759 70.8619 6.94764C70.7832 6.56286 70.7438 6.17808 70.6651 5.80613C70.6126 5.57526 70.5471 5.35722 70.4815 5.15201C70.4421 5.02375 70.3503 4.93396 70.1929 4.92114C70.0355 4.89549 69.9174 4.97244 69.8518 5.08788C69.7731 5.19048 69.7075 5.29309 69.655 5.40853C69.5632 5.61374 69.4845 5.81896 69.3796 6.01135C69.3664 6.06265 69.3533 6.10113 69.3271 6.1396C69.314 6.11395 69.3009 6.10113 69.3009 6.10113C69.1303 5.78048 68.9729 5.45983 68.8024 5.15201C68.7761 5.12635 68.763 5.1007 68.7499 5.07505C68.6712 4.95962 68.5794 4.89549 68.4351 4.89549C68.3039 4.90831 68.1989 4.98527 68.1334 5.1007C68.1071 5.15201 68.1071 5.19048 68.094 5.24179C68.0415 5.65222 67.9759 6.06265 67.9235 6.47308C67.8972 6.70395 67.8841 6.93481 67.8841 7.16568C67.871 7.21698 67.8841 7.28111 67.9103 7.33242C67.9366 7.43502 68.0153 7.49916 68.1202 7.51198C68.2514 7.52481 68.3432 7.48633 68.3826 7.38372C68.4219 7.30677 68.4351 7.24264 68.4482 7.17851C68.5007 6.94764 68.54 6.7296 68.5794 6.51156C68.6056 6.3833 68.6187 6.28069 68.6581 6.1396C68.6843 6.19091 68.7105 6.22939 68.7368 6.26786C68.8548 6.42178 68.9729 6.57569 69.1172 6.70395C69.2615 6.80655 69.3796 6.79373 69.4976 6.67829C69.5239 6.65264 69.537 6.63982 69.5632 6.61416C69.6813 6.4346 69.8256 6.25504 69.9436 6.07547C69.9699 6.04982 69.983 6.02417 70.0092 5.99852Z" fill="#172423"/>
<path d="M39.7837 5.6605C39.6925 5.90425 39.6751 6.07986 39.7172 6.22582C39.7637 6.4243 39.8844 6.48928 40.0482 6.4388C41.589 6.06627 44.9677 7.12367 46.2186 7.41838C46.5136 7.48026 46.7536 7.10791 46.5523 6.77407C46.2585 6.45077 42.8813 5.0666 41.5927 4.99113C41.0876 4.96322 40.1846 4.83658 39.7837 5.6605Z" fill="#172423"/>
<path d="M52.9883 1.17983C53.1525 1.2725 53.2443 1.3609 53.2896 1.45967C53.3571 1.58923 53.3215 1.67887 53.2081 1.72461C52.1896 2.21063 50.8343 4.30304 50.2872 5.02469C50.1546 5.1907 49.8487 5.09423 49.8025 4.82123C49.812 4.51255 51.0134 2.24182 51.6839 1.62335C51.9474 1.38188 52.3827 0.908087 52.9883 1.17983Z" fill="#172423"/>
<path d="M44.8773 0.149796C45.0746 0.00441888 45.2796 -0.0465256 45.3843 0.0479512C46.921 1.3329 47.7359 3.36773 48.2405 5.23057C48.2595 5.27397 48.2607 5.33625 48.2455 5.40122C48.2392 5.45675 48.1977 5.51541 48.1318 5.5608C48.0614 5.61091 48.0008 5.62617 47.9723 5.58299C47.2988 4.68732 43.4521 1.20242 44.8773 0.149796Z" fill="#172423"/>
<path d="M12.336 22.4276C12.7043 22.1595 13.1047 21.9363 13.5284 21.7631C13.9717 21.6392 14.4442 21.6597 14.8745 21.8217C15.3047 21.9837 15.6694 22.2782 15.9132 22.6608C16.1313 23.0424 16.2166 23.483 16.1564 23.9162C16.0962 24.3493 15.8937 24.7516 15.5793 25.0625C15.3356 25.3145 15.0589 25.534 14.7566 25.7154C13.4092 26.5665 12.0498 27.3709 10.6905 28.222C10.4123 28.435 10.1172 28.6261 9.80808 28.7933C9.33781 29.0226 8.80037 29.084 8.28868 28.9669C7.777 28.8499 7.32326 28.5616 7.00592 28.1521C6.76869 27.8621 6.56848 27.545 6.40971 27.2077C5.12191 24.5612 3.78642 21.9263 2.54631 19.2331C1.97395 18.0673 1.50891 16.7265 1.0558 15.4324C0.859759 15.0564 0.821477 14.6205 0.949104 14.2173C1.07673 13.8141 1.3602 13.4755 1.7392 13.2735C2.11821 13.0715 2.56285 13.0221 2.97857 13.1357C3.39429 13.2493 3.74829 13.517 3.96527 13.8818C4.63222 14.7484 5.22261 15.6689 5.73004 16.6333C7.01784 18.965 8.24603 21.2967 9.48613 23.5585C9.55834 23.6835 9.63796 23.8041 9.72461 23.9199C10.658 23.5362 11.5359 23.0345 12.336 22.4276Z" fill="#172423"/>
<path d="M25.6511 21.6142C22.7059 24.9835 17.7693 24.1324 15.2891 19.7954C13.5243 16.7175 13.2143 11.6343 17.0539 8.42816C17.8738 7.75693 18.8542 7.29968 19.9037 7.09906C21.1905 6.91869 22.5027 7.14065 23.6527 7.73323C24.8027 8.32581 25.7317 9.25866 26.307 10.3985C28.4056 14.1293 28.1075 18.886 25.6511 21.6142ZM24.4587 13.7562C24.1458 12.8394 23.5181 12.0567 22.682 11.541C22.2089 11.2113 21.634 11.051 21.0542 11.0871C20.4743 11.1232 19.9249 11.3535 19.4983 11.7392C17.7932 13.2199 17.4354 16.7292 18.6755 18.8161C18.8336 19.1564 19.0657 19.4588 19.3558 19.7022C19.6459 19.9456 19.9869 20.1241 20.3549 20.2251C20.7229 20.3262 21.109 20.3474 21.4863 20.2873C21.8636 20.2271 22.2228 20.0871 22.539 19.877C23.4633 19.1763 24.1414 18.2115 24.479 17.1167C24.8167 16.0218 24.7971 14.8513 24.423 13.7679L24.4587 13.7562Z" fill="#172423"/>
<path d="M37.6705 15.2252C37.369 15.2886 37.0575 15.2924 36.7544 15.2363C36.4514 15.1802 36.1628 15.0655 35.9058 14.8988C35.6809 14.773 35.4873 14.6001 35.3389 14.3924C35.1906 14.1847 35.0912 13.9475 35.0479 13.6977C35.0045 13.448 35.0184 13.192 35.0883 12.9481C35.1583 12.7042 35.2828 12.4785 35.4527 12.2872C35.7487 11.9028 36.1689 11.6276 36.6451 11.5061C37.8884 11.1533 39.1683 10.9382 40.4608 10.8649C40.7448 10.8326 41.0325 10.8561 41.307 10.934C41.5816 11.012 41.8374 11.1427 42.0596 11.3187C42.2817 11.4946 42.4657 11.7122 42.6007 11.9586C42.7356 12.205 42.8189 12.4753 42.8456 12.7536C43.2182 14.1206 43.259 15.5539 42.9648 16.9391C41.8917 21.416 38.1952 22.9549 34.0456 21.5209C32.8808 21.1375 31.8595 20.4231 31.1123 19.469C30.1157 18.32 29.4091 16.9583 29.0494 15.4934C28.758 14.1889 28.7899 12.8353 29.1426 11.5454C29.4952 10.2555 30.1583 9.06676 31.0765 8.07846C31.9479 7.00429 33.0789 6.15892 34.3676 5.61847C35.1819 5.17962 36.1348 5.05484 37.0386 5.26871C37.2436 5.32419 37.4297 5.43229 37.5776 5.5818C37.7255 5.73132 37.8298 5.91679 37.8797 6.119C37.9296 6.3212 37.9232 6.53277 37.8613 6.73177C37.7993 6.93076 37.6841 7.10993 37.5275 7.25069C37.2297 7.51424 36.9062 7.74854 36.5616 7.95021C35.5015 8.61028 34.579 9.46083 33.8429 10.4568C33.3604 11.1013 33.0281 11.8414 32.8695 12.6249C32.7108 13.4084 32.7297 14.2164 32.9248 14.9921C33.1952 16.0497 33.7953 16.999 34.6418 17.7085C37.2651 20.0403 40.6754 17.7901 40.0792 14.6073C39.2088 14.8172 38.4456 15.0387 37.6705 15.2252Z" fill="#172423"/>
<path d="M53.6967 21.8007C49.8214 24.1325 45.4095 21.8007 44.4436 16.9041C43.7401 13.4065 45.0756 8.50982 49.7499 6.64443C50.7444 6.25608 51.8231 6.11973 52.8859 6.24803C54.1628 6.47658 55.3342 7.09121 56.2348 8.00528C57.1354 8.91934 57.72 10.0867 57.9059 11.3429C58.6929 15.505 56.9043 19.947 53.6967 21.8007ZM55.0442 13.9544C55.043 12.9859 54.6926 12.0487 54.0545 11.3079C53.7134 10.8497 53.2203 10.5214 52.6593 10.3789C52.0982 10.2365 51.5041 10.2887 50.978 10.5268C48.8794 11.4128 47.4008 14.6306 47.9374 16.9974C47.9784 17.3688 48.1018 17.727 48.2991 18.0469C48.4964 18.3668 48.7628 18.6407 49.0797 18.8495C49.3965 19.0582 49.7562 19.1968 50.1335 19.2555C50.5109 19.3141 50.8968 19.2915 51.2642 19.1892C52.3735 18.8103 53.334 18.1022 54.0116 17.1637C54.6893 16.2252 55.0503 15.1032 55.0442 13.9544Z" fill="#172423"/>
<path d="M61.8249 22.7801C61.7664 23.2068 61.537 23.5933 61.187 23.8546C60.837 24.1158 60.3952 24.2305 59.9588 24.1733C59.5224 24.1161 59.1271 23.8917 58.8599 23.5495C58.5926 23.2074 58.4754 22.7754 58.5339 22.3487C58.5924 21.922 58.8219 21.5355 59.1718 21.2742C59.5218 21.0129 59.9636 20.8983 60.4 20.9555C60.8364 21.0127 61.2317 21.237 61.499 21.5792C61.7662 21.9214 61.8835 22.3534 61.8249 22.7801ZM60.7875 7.05246C61.0143 6.71381 61.347 6.45592 61.736 6.31725C62.1249 6.17858 62.5493 6.16656 62.9458 6.28299C63.3489 6.3816 63.705 6.61261 63.9547 6.93734C64.2043 7.26208 64.3322 7.66081 64.3171 8.06677C64.2645 8.71794 64.1649 9.36467 64.019 10.0021C63.6255 12.159 63.2439 14.3158 62.8266 16.4494C62.6358 17.3005 62.3854 18.1166 62.1111 18.9793C62.0157 19.249 61.8563 19.4927 61.6461 19.6905C61.5154 19.8393 61.3485 19.9534 61.1607 20.0223C60.9729 20.0913 60.7704 20.1128 60.5719 20.0849C60.3734 20.057 60.1852 19.9806 60.0249 19.8628C59.8646 19.7449 59.7373 19.5894 59.6548 19.4107C59.513 19.0901 59.436 18.7456 59.4282 18.3964C59.4282 16.9507 59.4282 15.4934 59.5236 14.036C59.6857 11.9562 60.0045 9.89087 60.4775 7.85691C60.5332 7.58441 60.6381 7.32382 60.7875 7.08744V7.05246Z" fill="#172423"/>
<path fill-rule="evenodd" clip-rule="evenodd" d="M7.29811 32.1488C7.15732 32.4561 7.11871 32.7987 7.18751 33.1284C7.23328 33.563 7.33381 33.9905 7.48681 34.4011C7.67783 34.9039 7.89158 35.4011 8.15514 36.0139C8.21575 36.1549 8.27909 36.3021 8.34537 36.457C8.70079 37.2872 9.14675 38.3482 9.7416 39.8837C9.90997 40.3199 10.0595 40.7597 10.21 41.2025C10.2709 41.3814 10.3319 41.5609 10.3944 41.7408C10.6183 42.3804 11.0037 42.955 11.5145 43.4104C11.7314 43.6607 12.0191 43.8431 12.3417 43.9343C12.6706 44.0273 13.0204 44.0214 13.3458 43.9174C13.6712 43.8133 13.957 43.6159 14.1661 43.3508C14.3711 43.0909 14.493 42.7777 14.5167 42.4505C14.6497 41.8131 14.6043 41.1522 14.3851 40.5377C14.0372 39.5174 13.6409 38.4956 13.1839 37.4962L13.1818 37.4918C12.43 35.9282 11.6658 34.3754 10.8654 32.822L10.8594 32.8111C10.6251 32.4064 10.3207 32.0446 9.95966 31.742C9.7253 31.4719 9.40203 31.2897 9.04503 31.2269C8.68042 31.1628 8.30438 31.2274 7.98404 31.4093C7.681 31.5785 7.44078 31.8374 7.29811 32.1488Z" fill="#172423"/>
<path fill-rule="evenodd" clip-rule="evenodd" d="M18.7807 28.2986C17.6019 28.0001 16.3708 27.9566 15.1732 28.1712C14.2456 28.2605 13.3333 28.4697 12.6998 28.8841C12.3776 29.095 12.1171 29.3658 11.9722 29.71C11.8265 30.0561 11.8079 30.4519 11.9273 30.8929C12.1453 31.7007 12.4284 32.4861 12.7105 33.269L12.7562 33.3958L12.7573 33.3986C13.6067 35.673 14.4642 37.9397 15.3295 40.1986C15.4304 40.5546 15.5731 40.898 15.7547 41.2219L15.7581 41.2279C15.998 41.6303 16.3057 41.9902 16.6682 42.2925C16.8495 42.4587 17.0737 42.5737 17.3168 42.6251C17.5623 42.6769 17.8176 42.6619 18.0549 42.5815C18.2923 42.5012 18.5025 42.3587 18.6627 42.1695C18.8203 41.9834 18.9235 41.7592 18.9614 41.5206C19.1178 40.8724 19.0677 40.1929 18.8177 39.5733C18.7397 39.3648 18.6785 39.1517 18.614 38.9274C18.5925 38.8526 18.5707 38.7765 18.5477 38.699C20.5284 37.942 22.6359 36.9241 23.377 34.5561C23.6672 33.7378 23.6914 32.8517 23.4462 32.0193C23.2008 31.186 22.6973 30.4474 22.0051 29.9052C21.063 29.1462 19.9625 28.5978 18.7807 28.2986ZM15.5132 31.2031C15.5522 31.1921 15.5915 31.1819 15.6309 31.1724C16.9204 30.9742 18.2397 31.2383 19.3459 31.9159C19.8334 32.2474 20.0331 32.6157 20.0674 32.9701C20.1028 33.335 19.9671 33.7304 19.6945 34.1105C19.1794 34.8285 18.2394 35.4032 17.3903 35.5103C16.7713 34.1165 16.1427 32.6663 15.5132 31.2031Z" fill="#172423"/>
<path d="M26.6396 25.7473C28.0434 25.1134 29.7823 25.0039 31.143 25.4496C31.4857 25.5472 31.783 25.7583 31.9841 26.0468C32.1839 26.3335 32.2761 26.679 32.2453 27.0244C32.2433 27.2486 32.187 27.4692 32.0811 27.6682C31.9733 27.8708 31.8172 28.045 31.626 28.1762C31.4348 28.3073 31.2141 28.3916 30.9826 28.4217C30.751 28.4519 30.5155 28.4271 30.2958 28.3494L30.2791 28.3435L30.2634 28.3354C30.151 28.2779 30.0316 28.2346 29.9081 28.2064L29.9003 28.2047C28.9431 27.9561 28.0402 28.368 27.7104 28.8741C27.5531 29.1154 27.5336 29.359 27.6646 29.5806C27.8049 29.8179 28.149 30.0842 28.8453 30.274C29.0368 30.3254 29.2331 30.375 29.4322 30.4254C29.9828 30.5648 30.555 30.7096 31.1083 30.9103L31.1104 30.9111C33.663 31.8607 34.6135 33.8274 34.2881 35.6772C33.9662 37.5065 32.4037 39.1713 30.054 39.564C29.199 39.7493 28.3092 39.7132 27.4727 39.4593C26.6341 39.2046 25.8782 38.7399 25.2801 38.1111L25.2645 38.0947C25.0757 37.8578 24.9487 37.5795 24.8924 37.2842C24.8406 37.0177 24.8679 36.7423 24.9709 36.4904C25.0733 36.24 25.2465 36.0233 25.47 35.8654C25.7061 35.6864 25.9907 35.579 26.2886 35.5566C26.5855 35.5343 26.8826 35.5974 27.1433 35.738C27.4037 35.861 27.6459 36.0179 27.8633 36.2045L27.8674 36.2079C28.252 36.5518 28.7173 36.6414 29.1635 36.5584C29.6162 36.4742 30.0419 36.2123 30.3157 35.8648C30.5877 35.5195 30.6969 35.1093 30.5673 34.7111C30.4369 34.31 30.0448 33.8606 29.1833 33.4849C28.9581 33.3914 28.7246 33.316 28.4817 33.2426C28.4162 33.2228 28.3496 33.2031 28.2822 33.1831C28.1026 33.1298 27.9178 33.0749 27.7366 33.0144C27.6118 32.9728 27.488 32.9334 27.3654 32.8943C27.0303 32.7876 26.7036 32.6836 26.3892 32.5441C25.7049 32.3163 25.1137 31.8789 24.7036 31.2966C24.2918 30.712 24.0846 30.0129 24.1128 29.3037C24.115 27.5754 25.2283 26.3847 26.6396 25.7473Z" fill="#172423"/>
<path d="M44.4369 25.5632C44.1647 25.4332 43.8637 25.3715 43.5611 25.3836C43.2584 25.3958 42.9636 25.4814 42.7033 25.6329C42.4446 25.7833 42.228 25.9939 42.0728 26.246C41.9305 26.4583 41.832 26.6957 41.7829 26.945C41.7338 27.1941 41.735 27.4501 41.7863 27.6986C41.837 28.018 41.8932 28.3286 41.9487 28.6349C42.0406 29.1418 42.13 29.6373 42.189 30.1425L42.1912 30.1553C42.3255 30.9476 42.3958 31.7489 42.4021 32.5519L42.4027 32.5633C42.4486 33.4305 42.1464 34.2808 41.5609 34.9338L41.5516 34.9454C41.3611 35.1841 41.1064 35.3663 40.8159 35.4716C40.5255 35.5769 40.2109 35.6011 39.9072 35.5415C39.6035 35.4819 39.3228 35.3409 39.0964 35.1342C38.87 34.9275 38.7067 34.6625 38.6252 34.3704C38.4512 33.7547 38.3505 33.1214 38.3249 32.4832L38.6221 27.8569C38.6265 27.7965 38.6315 27.7345 38.6366 27.6719C38.6479 27.5314 38.6595 27.3883 38.6643 27.2548C38.6713 27.0584 38.6653 26.8564 38.6185 26.6652C38.5706 26.4698 38.4795 26.2839 38.3179 26.1256C38.1579 25.9689 37.9419 25.8533 37.6701 25.7746C37.1786 25.6355 36.763 25.6399 36.4167 25.7836C36.0702 25.9273 35.8328 26.1941 35.6648 26.5023C35.4981 26.8079 35.391 27.1697 35.31 27.5321C35.2499 27.801 35.2016 28.0833 35.1557 28.352C35.1398 28.4446 35.1243 28.5355 35.1086 28.6238L35.1082 28.6264C34.8626 30.1 34.7895 31.5962 34.8903 33.086C34.9091 33.8911 35.0808 34.6858 35.3968 35.4295C35.7533 36.3891 36.399 37.2205 37.2487 37.814C38.1002 38.4087 39.1163 38.7364 40.1625 38.7537C41.2087 38.771 42.2356 38.4771 43.1072 37.911C43.9774 37.3457 44.6518 36.5355 45.0412 35.5876C45.5859 34.3801 45.8417 33.0669 45.7889 31.7481C45.7569 30.7853 45.7033 29.8151 45.65 28.8498C45.6238 28.3763 45.5977 27.9038 45.5743 27.4342C45.5625 26.9633 45.4037 26.5072 45.1191 26.1271C44.943 25.8868 44.7086 25.693 44.4369 25.5632Z" fill="#172423"/>
<path d="M54.0711 32.8173C54.0435 32.8516 54.0144 32.8871 53.984 32.924C53.7626 31.6752 53.5574 30.4268 53.3519 29.1765C53.2782 28.7279 53.2041 28.2774 53.1296 27.8282L53.1212 27.7781L53.094 27.7348C53.0427 27.6533 53.0376 27.5734 53.0376 27.403V27.3833L53.0345 27.3638C52.9789 27.0119 52.8161 26.6844 52.5674 26.4242C52.3194 26.1647 51.9973 25.9841 51.643 25.9057C51.2893 25.8204 50.9176 25.8392 50.5747 25.9598C50.2327 26.0801 49.9346 26.2963 49.7176 26.5813C49.5372 26.8 49.3893 27.0426 49.2785 27.3018C49.027 27.8602 48.7733 28.42 48.5189 28.9813L48.5145 28.991C47.8794 30.3923 47.24 31.803 46.6192 33.2248L46.6173 33.2294C46.2362 34.1513 45.9216 35.1227 45.6081 36.0911C45.5455 36.2844 45.4829 36.4776 45.4198 36.6703C45.3066 36.9759 45.2571 37.3005 45.2741 37.625C45.2535 37.9155 45.3246 38.2053 45.478 38.4552C45.6344 38.7102 45.8687 38.9108 46.1478 39.0289C46.4436 39.1557 46.7743 39.1826 47.0876 39.1054C47.4002 39.0283 47.6778 38.8519 47.8767 38.6039C48.1307 38.2984 48.3492 37.9652 48.5274 37.6122C49.0533 36.5604 49.5559 35.4958 50.0562 34.4358C50.2498 34.0258 50.4379 33.6586 50.6519 33.2587C50.6666 33.308 50.6816 33.3561 50.6971 33.4043C50.9214 34.3698 51.3 35.2946 51.8189 36.1448C51.9171 36.3249 52.0539 36.4823 52.2199 36.6062C52.3879 36.7316 52.5818 36.8196 52.7881 36.8643C52.9944 36.909 53.2082 36.9092 53.4146 36.8649C53.6207 36.8207 53.8152 36.7326 53.9833 36.6078L54.316 36.3643L56.8983 34.2376L56.7456 35.1891C56.536 36.497 56.328 37.794 56.107 39.0913C55.9624 39.6663 55.9626 40.2669 56.1076 40.8417C56.1704 41.1652 56.3304 41.463 56.5672 41.6972C56.806 41.9333 57.1118 42.0937 57.445 42.1577C57.7782 42.2216 58.1234 42.1862 58.4357 42.0559C58.7435 41.9276 59.0053 41.713 59.1883 41.4395C59.6141 40.923 59.8791 40.2977 59.9519 39.638C60.0615 38.7064 60.1853 37.7621 60.3092 36.8181C60.4519 35.73 60.5946 34.6422 60.7151 33.5753L60.7155 33.572C60.8315 32.4041 60.8876 31.2314 60.8837 30.058C60.9091 29.6872 60.8147 29.3178 60.6135 29.0021C60.4116 28.6853 60.1126 28.439 59.7592 28.2981C59.3916 28.1347 58.9801 28.091 58.5852 28.1736C58.1929 28.2556 57.8378 28.4578 57.5714 28.7507C57.0951 29.1814 56.6483 29.6423 56.2338 30.1304L56.231 30.1337C55.7785 30.685 55.3291 31.2471 54.8826 31.8056C54.6111 32.1451 54.3404 32.4838 54.0711 32.8173Z" fill="#172423"/>
</g>
<defs>
<clipPath id="clip0_24542_16185">
<rect width="70" height="44" fill="white" transform="translate(0.875)"/>
</clipPath>
</defs>
</svg>
