<svg width="131" height="24" viewBox="0 0 131 24" fill="none" xmlns="http://www.w3.org/2000/svg">
<g clip-path="url(#clip0_24542_16213)">
<path d="M73.089 17.6793H75.8696V7.19069H73.089V17.6793ZM73.089 5.55507H75.8696V3.0607H73.089V5.55507Z" fill="#172423"/>
<path d="M77.6616 21.1143H80.4423V16.4935H80.4828C81.0756 17.3932 82.0369 17.9861 83.5086 17.9861C86.2076 17.9861 88.0479 15.8393 88.0479 12.4453C88.0479 9.174 86.269 6.90454 83.4883 6.90454C82.0572 6.90454 81.0756 7.57929 80.4011 8.49931H80.3397V7.19078H77.6616V21.1143ZM82.9159 15.6757C81.2599 15.6757 80.3809 14.4286 80.3809 12.5271C80.3809 10.6461 81.0756 9.1536 82.8139 9.1536C84.5313 9.1536 85.226 10.5439 85.226 12.5271C85.226 14.5103 84.3268 15.6757 82.9159 15.6757Z" fill="#172423"/>
<path d="M93.5943 17.9861C96.2116 17.9861 98.0108 16.7185 98.0108 14.6125C98.0108 12.1591 96.0685 11.6684 94.3099 11.3004C92.8173 10.9937 91.4273 10.9119 91.4273 10.0123C91.4273 9.25581 92.1429 8.84691 93.2264 8.84691C94.4125 8.84691 95.1281 9.25581 95.2504 10.3803H97.7651C97.5611 8.27443 96.0274 6.90454 93.2675 6.90454C90.8751 6.90454 88.9942 7.98819 88.9942 10.2576C88.9942 12.5476 90.8345 13.0587 92.7154 13.4267C94.1465 13.713 95.4752 13.8152 95.4752 14.817C95.4752 15.5531 94.7804 16.0233 93.5538 16.0233C92.3063 16.0233 91.4475 15.4917 91.2639 14.2854H88.6877C88.8511 16.514 90.5483 17.9861 93.5943 17.9861Z" fill="#172423"/>
<path d="M108.568 17.6793V7.19073H105.787V13.2427C105.787 14.6329 104.99 15.6143 103.681 15.6143C102.495 15.6143 101.944 14.9396 101.944 13.7129V7.19073H99.1832V14.1831C99.1832 16.473 100.492 17.9656 102.823 17.9656C104.295 17.9656 105.113 17.4136 105.828 16.4526H105.89V17.6793H108.568Z" fill="#172423"/>
<path d="M110.366 17.6794H113.147V11.5866C113.147 10.1963 113.904 9.29672 115.028 9.29672C116.05 9.29672 116.643 9.91005 116.643 11.0959V17.6794H119.424V11.5866C119.424 10.1963 120.139 9.29672 121.305 9.29672C122.327 9.29672 122.92 9.91005 122.92 11.0959V17.6794H125.701V10.6256C125.701 8.33573 124.453 6.90454 122.245 6.90454C120.916 6.90454 119.812 7.59968 119.096 8.74464H119.056C118.545 7.64059 117.482 6.90454 116.152 6.90454C114.701 6.90454 113.679 7.64059 113.106 8.60152H113.045V7.19078H110.366V17.6794Z" fill="#172423"/>
<path d="M0.616486 17.6793H3.39708V3.0607H0.616486V17.6793Z" fill="#172423"/>
<path d="M10.196 17.9861C13.4468 17.9861 15.6754 15.5735 15.6754 12.4453C15.6754 9.31711 13.4468 6.90454 10.196 6.90454C6.9451 6.90454 4.71654 9.31711 4.71654 12.4453C4.71654 15.5735 6.9451 17.9861 10.196 17.9861ZM10.196 15.8598C8.47856 15.8598 7.53803 14.4899 7.53803 12.4453C7.53803 10.4008 8.47856 9.01048 10.196 9.01048C11.893 9.01048 12.8539 10.4008 12.8539 12.4453C12.8539 14.4899 11.893 15.8598 10.196 15.8598Z" fill="#172423"/>
<path d="M21.5886 21.2574C23.1425 21.2574 24.4919 20.8894 25.371 20.0715C26.148 19.3559 26.6183 18.3541 26.6183 16.882V7.19078H23.9399V8.29489H23.899C23.2651 7.41572 22.3042 6.90454 20.9957 6.90454C18.3378 6.90454 16.4568 8.90821 16.4568 12.0364C16.4568 15.2055 18.7467 17.0456 21.0775 17.0456C22.4064 17.0456 23.2038 16.514 23.8172 15.8188H23.8785V16.9638C23.8785 18.395 23.122 19.1515 21.5477 19.1515C20.2596 19.1515 19.6667 18.6403 19.4418 17.9861H16.6817C16.9679 20.0307 18.7262 21.2574 21.5886 21.2574ZM21.5477 14.817C20.1165 14.817 19.1761 13.7743 19.1761 11.9955C19.1761 10.2372 20.1165 9.13315 21.5273 9.13315C23.2038 9.13315 24.0217 10.4417 24.0217 11.9751C24.0217 13.5289 23.3061 14.817 21.5477 14.817Z" fill="#172423"/>
<path d="M33.377 17.9861C36.6278 17.9861 38.8564 15.5735 38.8564 12.4453C38.8564 9.31711 36.6278 6.90454 33.377 6.90454C30.1262 6.90454 27.8976 9.31711 27.8976 12.4453C27.8976 15.5735 30.1262 17.9861 33.377 17.9861ZM33.377 15.8598C31.6596 15.8598 30.7191 14.4899 30.7191 12.4453C30.7191 10.4008 31.6596 9.01048 33.377 9.01048C35.074 9.01048 36.035 10.4008 36.035 12.4453C36.035 14.4899 35.074 15.8598 33.377 15.8598Z" fill="#172423"/>
<path d="M126.711 5.46896C126.711 4.99847 127.093 4.61707 127.563 4.61707H129.267C129.737 4.61707 130.119 4.99847 130.119 5.46896C130.119 5.93946 129.737 6.32087 129.267 6.32087H127.563C127.093 6.32087 126.711 5.93946 126.711 5.46896Z" fill="#172423"/>
<path fill-rule="evenodd" clip-rule="evenodd" d="M55.7195 0.0735168C62.3062 0.0735168 67.6463 5.41324 67.6463 12.0001C67.6463 18.587 62.3062 23.9267 55.7195 23.9267C49.1326 23.9267 43.7929 18.587 43.7929 12.0001C43.7929 5.41324 49.1326 0.0735168 55.7195 0.0735168ZM55.2884 0.965979C53.9278 1.15746 52.6322 2.25077 51.6265 4.07931C51.3348 4.6097 51.0716 5.19567 50.8422 5.82837C52.2097 5.48472 53.7119 5.28212 55.2884 5.25078V0.965979ZM49.8342 6.11482C50.1195 5.2196 50.4684 4.39596 50.8711 3.66381C51.3696 2.75735 51.9613 1.97459 52.6279 1.37338C49.0029 2.42618 46.1456 5.28353 45.0927 8.90857C45.694 8.24193 46.4767 7.65025 47.3832 7.15172C48.1154 6.74902 48.939 6.40004 49.8342 6.11482ZM49.5477 7.1228C49.2041 8.4903 49.0015 9.99252 48.9701 11.569H44.6853C44.8768 10.2084 45.9701 8.9128 47.7987 7.90715C48.3291 7.61543 48.915 7.35221 49.5477 7.1228ZM49.8325 11.569C49.8681 9.84856 50.1158 8.23334 50.5256 6.80621C51.9527 6.39641 53.568 6.14869 55.2884 6.11309V7.97537C54.6466 9.6185 53.3375 10.9274 51.6944 11.569H49.8325ZM48.9701 12.4312H44.6853C44.8768 13.7919 45.9701 15.0874 47.7987 16.0931C48.3291 16.3848 48.915 16.648 49.5477 16.8774C49.2041 15.5099 49.0015 14.0077 48.9701 12.4312ZM50.5256 17.194C50.1158 15.7669 49.8681 14.1517 49.8325 12.4312H51.6944C53.3375 13.0728 54.6466 14.3817 55.2884 16.0249V17.8872C53.568 17.8516 51.9527 17.6038 50.5256 17.194ZM49.8342 17.8854C48.939 17.6002 48.1154 17.2512 47.3832 16.8485C46.4767 16.35 45.694 15.7583 45.0927 15.0917C46.1456 18.7167 49.0029 21.5741 52.6279 22.6268C51.9613 22.0256 51.3696 21.2429 50.8711 20.3364C50.4684 19.6043 50.1195 18.7806 49.8342 17.8854ZM55.2884 23.0343C53.9278 22.8428 52.6322 21.7495 51.6265 19.9209C51.3348 19.3906 51.0716 18.8045 50.8422 18.1719C52.2097 18.5155 53.7119 18.7181 55.2884 18.7494V23.0343ZM58.8111 22.6268C59.4777 22.0256 60.0693 21.2429 60.5679 20.3364C60.9704 19.6043 61.3198 18.7806 61.6049 17.8854C62.5 17.6002 63.3235 17.2512 64.0558 16.8485C64.9622 16.35 65.7452 15.7583 66.3463 15.0917C65.2932 18.7167 62.4362 21.5741 58.8111 22.6268ZM60.5971 18.1719C60.3675 18.8045 60.1039 19.3906 59.8123 19.9209C58.8068 21.7495 57.5112 22.8428 56.1506 23.0343V18.7494C57.7271 18.7181 59.2293 18.5155 60.5971 18.1719ZM61.8911 16.8774C62.5238 16.648 63.11 16.3848 63.6402 16.0931C65.4691 15.0874 66.5622 13.7919 66.7536 12.4312H62.469C62.4374 14.0077 62.2346 15.5099 61.8911 16.8774ZM61.6067 12.4312C61.5709 14.1517 61.3234 15.7669 60.9131 17.194C59.4862 17.6038 57.871 17.8516 56.1506 17.8872V16.0262C56.7922 14.3825 58.1016 13.073 59.7452 12.4312H61.6067ZM62.469 11.569H66.7536C66.5622 10.2084 65.4691 8.9128 63.6402 7.90715C63.11 7.61543 62.5238 7.35221 61.8911 7.1228C62.2346 8.4903 62.4374 9.99252 62.469 11.569ZM60.9131 6.80621C61.3234 8.23334 61.5709 9.84856 61.6067 11.569H59.7452C58.1016 10.9273 56.7922 9.61772 56.1506 7.974V6.11309C57.871 6.14869 59.4862 6.39641 60.9131 6.80621ZM61.6049 6.11482C62.5 6.40004 63.3235 6.74902 64.0558 7.15172C64.9622 7.65025 65.7452 8.24193 66.3463 8.90857C65.2932 5.28353 62.4362 2.42618 58.8111 1.37338C59.4777 1.97459 60.0693 2.75735 60.5679 3.66381C60.9704 4.39596 61.3198 5.2196 61.6049 6.11482ZM56.1506 0.965979C57.5112 1.15746 58.8068 2.25077 59.8123 4.07931C60.1039 4.60971 60.3675 5.19567 60.5971 5.82837C59.2293 5.48472 57.7271 5.28212 56.1506 5.25078V0.965979Z" fill="#172423"/>
</g>
<defs>
<clipPath id="clip0_24542_16213">
<rect width="130" height="23.8532" fill="white" transform="translate(0.125 0.0733948)"/>
</clipPath>
</defs>
</svg>
