<svg width="101" height="24" viewBox="0 0 101 24" fill="none" xmlns="http://www.w3.org/2000/svg">
<g clip-path="url(#clip0_24542_16173)">
<path fill-rule="evenodd" clip-rule="evenodd" d="M6.55092 1.6449V23.8342H0.625V1.6449H6.55092Z" fill="#172423"/>
<path fill-rule="evenodd" clip-rule="evenodd" d="M9.51392 1.6449H22.1065C26.1975 1.6449 29.5139 4.9564 29.5139 9.04135C29.5139 13.1263 26.1975 16.4378 22.1065 16.4378H15.4398V23.8342H9.51392V1.6449ZM15.4398 10.5206H22.1065C22.9247 10.5206 23.588 9.85833 23.588 9.04135C23.588 8.22436 22.9247 7.56206 22.1065 7.56206H15.4398V10.5206Z" fill="#172423"/>
<path fill-rule="evenodd" clip-rule="evenodd" d="M51.7361 1.6449V13.1094C51.7361 15.7646 53.8918 17.9171 56.5509 17.9171C59.2101 17.9171 61.3658 15.7646 61.3658 13.1094V1.6449H67.2919V13.1094C67.2919 19.0326 62.483 23.8342 56.5509 23.8342C50.619 23.8342 45.8102 19.0326 45.8102 13.1094V1.6449H51.7361Z" fill="#172423"/>
<path fill-rule="evenodd" clip-rule="evenodd" d="M31.7361 11.9999C31.7361 6.28099 36.3791 1.6449 42.1065 1.6449H43.588V7.56206H42.1065C39.6519 7.56206 37.662 9.54898 37.662 11.9999V12.7396C37.662 18.867 32.6874 23.8342 26.5509 23.8342H25.8102V17.9171H26.5509C29.4146 17.9171 31.7361 15.599 31.7361 12.7396V11.9999Z" fill="#172423"/>
<path d="M100.625 2.38434C100.625 3.60983 99.6303 4.60328 98.4025 4.60328C97.1753 4.60328 96.1806 3.60983 96.1806 2.38434C96.1806 1.15886 97.1753 0.165405 98.4025 0.165405C99.6303 0.165405 100.625 1.15886 100.625 2.38434Z" fill="#172423"/>
<path d="M73.6547 23.834L76.4825 12.0104L78.5848 19.1236C79.8381 23.3661 85.8564 23.3661 87.1103 19.1236L89.2121 12.0104L92.0399 23.834H98.1322L93.686 5.24202C92.6286 0.820689 86.389 0.656986 85.1002 5.01683L82.8475 12.6407L80.5943 5.01683C79.3061 0.657011 73.0659 0.820665 72.0085 5.24201L67.5623 23.834H73.6547Z" fill="#172423"/>
</g>
<defs>
<clipPath id="clip0_24542_16173">
<rect width="100" height="23.6686" fill="white" transform="translate(0.625 0.16568)"/>
</clipPath>
</defs>
</svg>
