<svg width="55" height="42" viewBox="0 0 55 42" fill="none" xmlns="http://www.w3.org/2000/svg">
<g clip-path="url(#clip0_24542_16168)">
<path d="M54.875 2C54.875 2.39782 54.717 2.77936 54.4357 3.06066C54.1544 3.34196 53.7728 3.5 53.375 3.5C52.9772 3.5 52.5956 3.34196 52.3143 3.06066C52.033 2.77936 51.875 2.39782 51.875 2C51.875 1.60218 52.033 1.22064 52.3143 0.93934C52.5956 0.658035 52.9772 0.5 53.375 0.5C53.7728 0.5 54.1544 0.658035 54.4357 0.93934C54.717 1.22064 54.875 1.60218 54.875 2Z" fill="#172423"/>
<path fill-rule="evenodd" clip-rule="evenodd" d="M14.625 41.294C7.031 41.294 0.875 35.138 0.875 27.544V1.5H5.875V27.544C5.875 29.8646 6.79687 32.0902 8.43782 33.7312C10.0788 35.3721 12.3044 36.294 14.625 36.294C19.518 36.294 23.375 32.523 23.375 27.75H28.375V35.25C28.375 35.5815 28.5067 35.8995 28.7411 36.1339C28.9755 36.3683 29.2935 36.5 29.625 36.5C29.9565 36.5 30.2745 36.3683 30.5089 36.1339C30.7433 35.8995 30.875 35.5815 30.875 35.25V26.375C29.9668 26.5604 29.0288 26.5414 28.1288 26.3196C27.2289 26.0977 26.3896 25.6784 25.6717 25.0921C24.9537 24.5058 24.3752 23.7672 23.978 22.9297C23.5808 22.0922 23.3748 21.1769 23.375 20.25V7.75C23.375 6.0924 24.0335 4.50269 25.2056 3.33058C26.3777 2.15848 27.9674 1.5 29.625 1.5C31.2826 1.5 32.8723 2.15848 34.0444 3.33058C35.2165 4.50269 35.875 6.0924 35.875 7.75V35.25C35.875 35.5815 36.0067 35.8995 36.2411 36.1339C36.4755 36.3683 36.7935 36.5 37.125 36.5C37.4565 36.5 37.7745 36.3683 38.0089 36.1339C38.2433 35.8995 38.375 35.5815 38.375 35.25V7.75C38.375 6.0924 39.0335 4.50269 40.2056 3.33058C41.3777 2.15848 42.9674 1.5 44.625 1.5C46.2826 1.5 47.8723 2.15848 49.0444 3.33058C50.2165 4.50269 50.875 6.0924 50.875 7.75V35.25C50.875 36.4107 50.5518 37.5485 49.9416 38.5358C49.3314 39.5232 48.4582 40.3211 47.4201 40.8402C46.3819 41.3593 45.2197 41.579 44.0637 41.4747C42.9077 41.3705 41.8036 40.9464 40.875 40.25C39.7941 41.0632 38.4776 41.502 37.125 41.5C35.7724 41.502 34.4559 41.0632 33.375 40.25C32.6228 40.8141 31.753 41.2012 30.8304 41.3826C29.9078 41.564 28.9562 41.5349 28.0464 41.2975C27.1366 41.0601 26.2921 40.6205 25.5758 40.0115C24.8594 39.4025 24.2897 38.6397 23.909 37.78C21.453 39.977 18.186 41.294 14.625 41.294ZM44.625 36.5C43.935 36.5 43.375 35.94 43.375 35.25V7.75C43.375 7.41848 43.5067 7.10054 43.7411 6.86612C43.9755 6.6317 44.2935 6.5 44.625 6.5C44.9565 6.5 45.2745 6.6317 45.5089 6.86612C45.7433 7.10054 45.875 7.41848 45.875 7.75V35.25C45.875 35.94 45.315 36.5 44.625 36.5ZM30.875 20.25C30.875 20.5815 30.7433 20.8995 30.5089 21.1339C30.2745 21.3683 29.9565 21.5 29.625 21.5C29.2935 21.5 28.9755 21.3683 28.7411 21.1339C28.5067 20.8995 28.375 20.5815 28.375 20.25V7.75C28.375 7.41848 28.5067 7.10054 28.7411 6.86612C28.9755 6.6317 29.2935 6.5 29.625 6.5C29.9565 6.5 30.2745 6.6317 30.5089 6.86612C30.7433 7.10054 30.875 7.41848 30.875 7.75V20.25Z" fill="#172423"/>
<path fill-rule="evenodd" clip-rule="evenodd" d="M8.375 27.75C8.375 29.4076 9.03348 30.9973 10.2056 32.1694C11.3777 33.3415 12.9674 34 14.625 34C16.2826 34 17.8723 33.3415 19.0444 32.1694C20.2165 30.9973 20.875 29.4076 20.875 27.75V7.75C20.875 6.0924 20.2165 4.50269 19.0444 3.33058C17.8723 2.15848 16.2826 1.5 14.625 1.5C12.9674 1.5 11.3777 2.15848 10.2056 3.33058C9.03348 4.50269 8.375 6.0924 8.375 7.75V27.75ZM14.625 29C13.935 29 13.375 28.44 13.375 27.75V7.75C13.375 7.41848 13.5067 7.10054 13.7411 6.86612C13.9755 6.6317 14.2935 6.5 14.625 6.5C14.9565 6.5 15.2745 6.6317 15.5089 6.86612C15.7433 7.10054 15.875 7.41848 15.875 7.75V27.75C15.875 28.44 15.315 29 14.625 29Z" fill="#172423"/>
</g>
<defs>
<clipPath id="clip0_24542_16168">
<rect width="54" height="41" fill="white" transform="translate(0.875 0.5)"/>
</clipPath>
</defs>
</svg>
