<svg width="20" height="20" viewBox="0 0 20 20" fill="none" xmlns="http://www.w3.org/2000/svg">
<path d="M10.125 13.75V15.5" stroke="white" stroke-width="1.5" stroke-linecap="round" stroke-linejoin="round"/>
<path d="M5.95833 18.3334H14.2917V17.5C14.2917 16.5834 13.5417 15.8334 12.625 15.8334H7.625C6.70833 15.8334 5.95833 16.5834 5.95833 17.5V18.3334V18.3334Z" stroke="white" stroke-width="1.5" stroke-miterlimit="10"/>
<path d="M5.125 18.3334H15.125" stroke="white" stroke-width="1.5" stroke-linecap="round" stroke-linejoin="round"/>
<path d="M10 13.3333C6.775 13.3333 4.16667 10.725 4.16667 7.49996V4.99996C4.16667 3.15829 5.65833 1.66663 7.5 1.66663H12.5C14.3417 1.66663 15.8333 3.15829 15.8333 4.99996V7.49996C15.8333 10.725 13.225 13.3333 10 13.3333Z" stroke="white" stroke-width="1.5" stroke-linecap="round" stroke-linejoin="round"/>
<path d="M4.55833 9.70833C3.93333 9.50833 3.38333 9.14167 2.95 8.70833C2.2 7.875 1.7 6.875 1.7 5.70833C1.7 4.54167 2.61667 3.625 3.78333 3.625H4.325C4.15833 4.00833 4.075 4.43333 4.075 4.875V7.375C4.075 8.20833 4.25 8.99167 4.55833 9.70833Z" stroke="white" stroke-width="1.5" stroke-linecap="round" stroke-linejoin="round"/>
<path d="M15.4417 9.70833C16.0667 9.50833 16.6167 9.14167 17.05 8.70833C17.8 7.875 18.3 6.875 18.3 5.70833C18.3 4.54167 17.3833 3.625 16.2167 3.625H15.675C15.8417 4.00833 15.925 4.43333 15.925 4.875V7.375C15.925 8.20833 15.75 8.99167 15.4417 9.70833Z" stroke="white" stroke-width="1.5" stroke-linecap="round" stroke-linejoin="round"/>
</svg>
