<svg width="20" height="20" viewBox="0 0 20 20" fill="none" xmlns="http://www.w3.org/2000/svg">
<g clip-path="url(#clip0_24810_821)">
<path d="M10 0.0996094C15.4681 0.0996096 19.9004 4.53193 19.9004 10C19.9004 15.4681 15.4681 19.9004 10 19.9004C4.53193 19.9004 0.0996096 15.4681 0.0996094 10C0.0996094 4.53193 4.53193 0.0996094 10 0.0996094Z" fill="#E99F69" stroke="#E99F69" stroke-width="0.198338"/>
<path d="M11.3019 19.9159V12.1902H13.4812L13.7701 9.47113H11.3019L11.3055 8.11009C11.3055 7.40089 11.3729 7.02107 12.3922 7.02107H13.7548V4.30151H11.575C8.95661 4.30151 8.03516 5.6205 8.03516 7.83895V9.47133H6.40295V12.1907H8.03516V19.8064C8.67102 19.933 9.3284 19.9999 10.0015 19.9999C10.4363 19.9999 10.8707 19.9719 11.3019 19.9159V19.9159Z" fill="white"/>
</g>
<defs>
<clipPath id="clip0_24810_821">
<rect width="20" height="20" rx="2" fill="white"/>
</clipPath>
</defs>
</svg>
