<svg width="20" height="20" viewBox="0 0 20 20" fill="none" xmlns="http://www.w3.org/2000/svg">
<path d="M1.66666 10.2915H6.49998C7.77498 10.2915 8.64999 11.2582 8.64999 12.4415V15.1249C8.64999 16.3082 7.77498 17.2748 6.49998 17.2748H3.81667C2.63334 17.2748 1.66666 16.3082 1.66666 15.1249V10.2915" stroke="white" stroke-width="1.5" stroke-linecap="round" stroke-linejoin="round"/>
<path d="M1.66666 10.2917C1.66666 5.25002 2.60835 4.41673 5.44168 2.7334" stroke="white" stroke-width="1.5" stroke-linecap="round" stroke-linejoin="round"/>
<path d="M11.3583 10.2915H16.1917C17.4667 10.2915 18.3417 11.2582 18.3417 12.4415V15.1249C18.3417 16.3082 17.4667 17.2748 16.1917 17.2748H13.5084C12.325 17.2748 11.3583 16.3082 11.3583 15.1249V10.2915" stroke="white" stroke-width="1.5" stroke-linecap="round" stroke-linejoin="round"/>
<path d="M11.3583 10.2917C11.3583 5.25002 12.3 4.41673 15.1333 2.7334" stroke="white" stroke-width="1.5" stroke-linecap="round" stroke-linejoin="round"/>
</svg>
