<svg width="20" height="18" viewBox="0 0 20 18" fill="none" xmlns="http://www.w3.org/2000/svg">
<mask id="path-1-inside-1_24810_805" fill="white">
<path d="M6.2898 17.128C13.8373 17.128 17.9648 10.8714 17.9648 5.44591C17.9648 5.26822 17.9612 5.09135 17.9532 4.91521C18.7563 4.33374 19.4494 3.61379 20 2.7891C19.2648 3.11617 18.4736 3.3363 17.6436 3.43556C18.4908 2.92726 19.1411 2.12313 19.448 1.16461C18.6425 1.64273 17.7613 1.97978 16.8424 2.16123C16.0936 1.36316 15.0276 0.864014 13.8472 0.864014C11.5812 0.864014 9.74362 2.70274 9.74362 4.96925C9.74362 5.29148 9.77967 5.60481 9.85008 5.90545C6.43972 5.73374 3.41565 4.09994 1.39179 1.61565C1.02727 2.24224 0.835542 2.95437 0.836179 3.67931C0.836179 5.10379 1.56057 6.36129 2.66219 7.09699C2.01057 7.07708 1.37325 6.90096 0.803821 6.58345C0.803211 6.60069 0.803211 6.61749 0.803211 6.6359C0.803211 8.6243 2.2176 10.2845 4.09516 10.6607C3.74253 10.7568 3.37865 10.8054 3.01317 10.8051C2.74923 10.8051 2.49199 10.7792 2.24199 10.7311C2.76439 12.3625 4.27919 13.5497 6.07516 13.5828C4.67073 14.6843 2.90159 15.3403 0.97878 15.3403C0.651687 15.3406 0.32486 15.3216 0 15.2834C1.81602 16.4481 3.97236 17.1277 6.29 17.1277"/>
</mask>
<path d="M6.2898 17.128C13.8373 17.128 17.9648 10.8714 17.9648 5.44591C17.9648 5.26822 17.9612 5.09135 17.9532 4.91521C18.7563 4.33374 19.4494 3.61379 20 2.7891C19.2648 3.11617 18.4736 3.3363 17.6436 3.43556C18.4908 2.92726 19.1411 2.12313 19.448 1.16461C18.6425 1.64273 17.7613 1.97978 16.8424 2.16123C16.0936 1.36316 15.0276 0.864014 13.8472 0.864014C11.5812 0.864014 9.74362 2.70274 9.74362 4.96925C9.74362 5.29148 9.77967 5.60481 9.85008 5.90545C6.43972 5.73374 3.41565 4.09994 1.39179 1.61565C1.02727 2.24224 0.835542 2.95437 0.836179 3.67931C0.836179 5.10379 1.56057 6.36129 2.66219 7.09699C2.01057 7.07708 1.37325 6.90096 0.803821 6.58345C0.803211 6.60069 0.803211 6.61749 0.803211 6.6359C0.803211 8.6243 2.2176 10.2845 4.09516 10.6607C3.74253 10.7568 3.37865 10.8054 3.01317 10.8051C2.74923 10.8051 2.49199 10.7792 2.24199 10.7311C2.76439 12.3625 4.27919 13.5497 6.07516 13.5828C4.67073 14.6843 2.90159 15.3403 0.97878 15.3403C0.651687 15.3406 0.32486 15.3216 0 15.2834C1.81602 16.4481 3.97236 17.1277 6.29 17.1277" fill="#E99F69"/>
<path d="M17.9532 4.91521L15.7433 1.86292L14.0964 3.05528L14.1887 5.08636L17.9532 4.91521ZM20 2.7891L23.134 4.88153L30.3622 -5.94483L18.4684 -0.653916L20 2.7891ZM17.6436 3.43556L15.7049 0.204208L18.091 7.17721L17.6436 3.43556ZM19.448 1.16461L23.0369 2.31359L26.0651 -7.14527L17.5246 -2.07585L19.448 1.16461ZM16.8424 2.16123L14.0943 4.73961L15.5234 6.26277L17.5724 5.85816L16.8424 2.16123ZM9.85008 5.90545L9.66059 9.66899L14.6607 9.92074L13.5191 5.0462L9.85008 5.90545ZM1.39179 1.61565L4.31333 -0.764426L0.873317 -4.98704L-1.86544 -0.279241L1.39179 1.61565ZM0.836179 3.67931L4.60449 3.67931L4.60449 3.676L0.836179 3.67931ZM2.66219 7.09699L2.54709 10.8635L15.6887 11.2651L4.75501 3.96325L2.66219 7.09699ZM0.803821 6.58345L2.63899 3.2922L-2.74428 0.29054L-2.96214 6.45025L0.803821 6.58345ZM4.09516 10.6607L5.08592 14.2964L4.83547 6.96579L4.09516 10.6607ZM3.01317 10.8051L3.01536 7.03683H3.01317L3.01317 10.8051ZM2.24199 10.7311L2.95281 7.03047L-3.28343 5.83263L-1.34681 11.8804L2.24199 10.7311ZM6.07516 13.5828L8.40064 16.548L16.7361 10.0108L6.14477 9.81516L6.07516 13.5828ZM0.97878 15.3403L0.97878 11.572L0.975573 11.572L0.97878 15.3403ZM0 15.2834L0.439714 11.5409L-2.03437 18.4554L0 15.2834ZM6.2898 17.128V20.8963C16.3533 20.8963 21.7331 12.4894 21.7331 5.44591H17.9648H14.1965C14.1965 9.25341 11.3214 13.3597 6.2898 13.3597V17.128ZM17.9648 5.44591H21.7331C21.7331 5.21723 21.7285 4.98298 21.7176 4.74407L17.9532 4.91521L14.1887 5.08636C14.1939 5.19973 14.1965 5.31922 14.1965 5.44591H17.9648ZM17.9532 4.91521L20.1631 7.9675C21.3288 7.12348 22.3348 6.07848 23.134 4.88153L20 2.7891L16.866 0.696678C16.5639 1.14909 16.1837 1.544 15.7433 1.86292L17.9532 4.91521ZM20 2.7891L18.4684 -0.653916C18.0782 -0.480321 17.6525 -0.360671 17.1962 -0.306102L17.6436 3.43556L18.091 7.17721C19.2947 7.03328 20.4514 6.71266 21.5316 6.23212L20 2.7891ZM17.6436 3.43556L19.5823 6.6669C21.1976 5.69778 22.4452 4.16176 23.0369 2.31359L19.448 1.16461L15.8591 0.0156337C15.8371 0.0845027 15.784 0.156746 15.7049 0.204208L17.6436 3.43556ZM19.448 1.16461L17.5246 -2.07585C17.088 -1.8167 16.6104 -1.63403 16.1124 -1.5357L16.8424 2.16123L17.5724 5.85816C18.9122 5.5936 20.197 5.10216 21.3714 4.40507L19.448 1.16461ZM16.8424 2.16123L19.5905 -0.417148C18.159 -1.94294 16.1111 -2.9043 13.8472 -2.9043V0.864014V4.63233C13.9441 4.63233 14.0283 4.66925 14.0943 4.73961L16.8424 2.16123ZM13.8472 0.864014V-2.9043C9.49831 -2.9043 5.9753 0.623247 5.9753 4.96925H9.74362H13.5119C13.5119 4.78223 13.6641 4.63233 13.8472 4.63233V0.864014ZM9.74362 4.96925H5.9753C5.9753 5.57337 6.043 6.17529 6.18104 6.7647L9.85008 5.90545L13.5191 5.0462C13.5163 5.03432 13.5119 5.0096 13.5119 4.96925H9.74362ZM9.85008 5.90545L10.0396 2.1419C7.73569 2.0259 5.68978 0.925165 4.31333 -0.764426L1.39179 1.61565L-1.52975 3.99573C1.14152 7.27472 5.14374 9.44158 9.66059 9.66899L9.85008 5.90545ZM1.39179 1.61565L-1.86544 -0.279241C-2.56529 0.923754 -2.93336 2.29091 -2.93213 3.68262L0.836179 3.67931L4.60449 3.676C4.60444 3.61783 4.61983 3.56073 4.64902 3.51055L1.39179 1.61565ZM0.836179 3.67931L-2.93214 3.67931C-2.93214 6.41018 -1.53899 8.82269 0.569381 10.2307L2.66219 7.09699L4.75501 3.96325C4.66013 3.89988 4.60449 3.79741 4.60449 3.67931L0.836179 3.67931ZM2.66219 7.09699L2.7773 3.33043C2.72885 3.32895 2.68142 3.31586 2.63899 3.2922L0.803821 6.58345L-1.03135 9.8747C0.0650766 10.4861 1.29229 10.8252 2.54709 10.8635L2.66219 7.09699ZM0.803821 6.58345L-2.96214 6.45025C-2.9655 6.54525 -2.9651 6.62885 -2.9651 6.6359H0.803211H4.57153C4.57153 6.62353 4.57155 6.63159 4.57146 6.64242C4.57134 6.65585 4.571 6.68232 4.56978 6.71665L0.803821 6.58345ZM0.803211 6.6359H-2.9651C-2.9651 10.4523 -0.251745 13.6329 3.35486 14.3556L4.09516 10.6607L4.83547 6.96579C4.76989 6.95266 4.70167 6.91491 4.6478 6.84984C4.59816 6.78988 4.57153 6.72063 4.57153 6.6359H0.803211ZM4.09516 10.6607L3.10441 7.02494C3.07538 7.03285 3.04543 7.03684 3.01536 7.03683L3.01317 10.8051L3.01098 14.5735C3.71188 14.5739 4.40969 14.4807 5.08592 14.2964L4.09516 10.6607ZM3.01317 10.8051L3.01317 7.03683C2.99793 7.03683 2.97873 7.03545 2.95281 7.03047L2.24199 10.7311L1.53118 14.4318C2.00525 14.5229 2.50053 14.5735 3.01317 14.5735L3.01317 10.8051ZM2.24199 10.7311L-1.34681 11.8804C-0.346088 15.0054 2.55312 17.2867 6.00556 17.3505L6.07516 13.5828L6.14477 9.81516C6.0693 9.81376 6.00715 9.79085 5.95199 9.74919C5.89149 9.7035 5.8502 9.64253 5.83079 9.58192L2.24199 10.7311ZM6.07516 13.5828L3.74968 10.6176C2.98548 11.217 2.02932 11.572 0.97878 11.572V15.3403V19.1086C3.77385 19.1086 6.35599 18.1516 8.40064 16.548L6.07516 13.5828ZM0.97878 15.3403L0.975573 11.572C0.796493 11.5722 0.617564 11.5618 0.439714 11.5409L0 15.2834L-0.439714 19.026C0.0321571 19.0814 0.50688 19.109 0.981988 19.1086L0.97878 15.3403ZM0 15.2834L-2.03437 18.4554C0.365467 19.9946 3.22399 20.896 6.29 20.896V17.1277V13.3594C4.72073 13.3594 3.26657 12.9017 2.03437 12.1114L0 15.2834Z" fill="#E99F69" mask="url(#path-1-inside-1_24810_805)"/>
</svg>
